<svg width="76" height="76" viewBox="0 0 76 76" fill="none" xmlns="http://www.w3.org/2000/svg">
<rect width="76" height="76" rx="3" fill="url(#paint0_linear)"/>
<path d="M72.96 0H3.04C1.3585 0 0 1.3585 0 3.04V72.96C0 74.6415 1.3585 76 3.04 76H72.96C74.6415 76 76 74.6415 76 72.96V3.04C76 1.3585 74.6415 0 72.96 0ZM38.1045 38.5795L19.8645 53.8745C19.3705 54.2925 18.62 53.941 18.62 53.295V47.3385C18.62 47.12 18.7245 46.9015 18.8955 46.759L29.3265 38L18.8955 29.241C18.8082 29.172 18.7379 29.0839 18.6901 28.9834C18.6424 28.8829 18.6184 28.7728 18.62 28.6615V22.705C18.62 22.059 19.3705 21.7075 19.8645 22.1255L38.1045 37.411C38.475 37.715 38.475 38.2755 38.1045 38.5795V38.5795ZM57.38 53.295C57.38 53.713 57.057 54.055 56.6675 54.055H39.0925C38.703 54.055 38.38 53.713 38.38 53.295V48.735C38.38 48.317 38.703 47.975 39.0925 47.975H56.6675C57.057 47.975 57.38 48.317 57.38 48.735V53.295Z" fill="black"/>
<defs>
<linearGradient id="paint0_linear" x1="0" y1="38" x2="76" y2="38" gradientUnits="userSpaceOnUse">
<stop stop-color="#5433FF"/>
<stop offset="0.692708" stop-color="#20BDFF"/>
<stop offset="1" stop-color="#39DBFF"/>
</linearGradient>
</defs>
</svg>
